<svg version="1.1" xmlns="http://www.w3.org/2000/svg" viewBox="-2190.7183039719994 -1499.6480361938477 6724.9907603318625 2282.4960845947267"><desc>Created with Snap</desc><defs></defs><g><rect x="-2190.7183039719994" y="-1499.6480361938477" width="6724.9907603318625" height="2282.4960845947267" fill="#7209b7" style=""></rect><g transform="matrix(20.5001,0,0,20.5001,-2098.8927,-1362.9067)"><path d="M89.495,56.409c0-3.217-2.225-6.033-5.748-7.865V33.219c0-0.566-0.296-1.092-0.78-1.386L59.404,17.53l-6.073-8.534  c-0.306-0.427-0.797-0.681-1.321-0.681c-0.525,0-1.017,0.254-1.321,0.681l-6.074,8.534L21.051,31.833  c-0.484,0.294-0.78,0.819-0.78,1.386v15.117l-8.988,5.481c-0.482,0.295-0.777,0.818-0.777,1.384v0.166v0.968v19.623  c0,0.565,0.295,1.09,0.777,1.385l16.882,10.294c0.259,0.157,0.552,0.236,0.844,0.236c0.293,0,0.586-0.079,0.845-0.236l9.144-5.575  l12.172,7.388c0.259,0.157,0.55,0.235,0.842,0.235c0.291,0,0.582-0.078,0.841-0.235l11.411-6.927  c2.638,1.308,5.971,2.086,9.647,2.086c8.739,0,15.586-4.356,15.586-9.917V57.535c0-0.138-0.022-0.27-0.056-0.398  C89.466,56.896,89.495,56.655,89.495,56.409z M53.631,15.011l13.711,19.264l-13.711,8.468V15.011z M50.388,15.011v27.731  l-13.711-8.468L50.388,15.011z M27.387,83.363l-13.639-8.315V59.224l13.639,8.317V83.363z M29.008,64.731l-14.56-8.88l14.56-8.88  l14.562,8.88L29.008,64.731z M30.63,83.363V67.541l13.64-8.317v15.824L30.63,83.363z M52.01,86.166l-9.896-6.007l4.62-2.816  c0.483-0.295,0.777-0.819,0.777-1.385V56.335v-0.968v-0.166c0-0.565-0.294-1.089-0.777-1.384L29.853,43.522  c-0.519-0.316-1.17-0.316-1.688,0l-4.651,2.836V34.131l16.348-9.922l-6.83,9.596c-0.26,0.365-0.356,0.821-0.269,1.261  c0.09,0.439,0.356,0.823,0.738,1.059l17.657,10.904c0.262,0.161,0.557,0.241,0.853,0.241c0.295,0,0.59-0.08,0.852-0.241  l17.657-10.904c0.382-0.235,0.648-0.619,0.737-1.059s-0.008-0.896-0.268-1.261l-6.829-9.596l16.345,9.922v13.128  c-1.995-0.59-4.221-0.926-6.595-0.926c-8.739,0-15.586,4.426-15.586,10.076c0,0.246,0.029,0.487,0.056,0.728  c-0.033,0.129-0.056,0.261-0.056,0.398v17.156c0,2.21,1.094,4.223,2.946,5.854L52.01,86.166z M86.252,74.691  c0,3.618-5.652,6.674-12.343,6.674s-12.343-3.056-12.343-6.674V62.616c2.827,2.366,7.259,3.87,12.343,3.87s9.516-1.504,12.343-3.87  V74.691z M73.909,63.243c-6.69,0-12.343-3.129-12.343-6.834c0-3.704,5.652-6.833,12.343-6.833s12.343,3.129,12.343,6.833  C86.252,60.114,80.6,63.243,73.909,63.243z" fill="#ffffff" style=""></path><desc>Created with Snap</desc><defs></defs></g><g><g transform="matrix(1.024,0,0,-1.024,0,0)"><path d="M272 -12Q203 -12 144 14Q85 40 42 85L92 143Q127 106 174 83Q222 61 273 61Q338 61 374 90Q410 120 410 168Q410 193 401 210Q393 228 378 240Q364 253 344 263Q324 273 301 284L207 325Q184 335 160 349Q136 363 117 383Q98 403 86 430Q74 458 74 494Q74 531 89 563Q105 595 132 618Q160 642 197 655Q235 668 280 668Q339 668 389 645Q439 623 474 587L429 533Q399 562 362 578Q326 595 280 595Q225 595 191 569Q158 544 158 499Q158 475 167 458Q177 442 193 429Q209 417 228 407Q247 398 267 390L360 350Q388 338 413 322Q438 307 456 286Q474 266 484 238Q495 211 495 175Q495 136 479 102Q464 68 435 42Q406 17 365 2Q324 -12 272 -12ZM698 0L616 0L616 712L698 712L698 518L695 418Q730 451 768 474Q806 498 857 498Q934 498 969 450Q1005 402 1005 308L1005 0L923 0L923 297Q923 366 901 396Q879 427 831 427Q793 427 764 408Q735 389 698 352L698 0ZM1272 -12Q1211 -12 1170 24Q1130 60 1130 126Q1130 206 1201 248Q1272 291 1428 308Q1428 331 1423 353Q1419 375 1408 392Q1397 409 1377 419Q1358 430 1328 430Q1286 430 1249 414Q1212 398 1183 378L1151 435Q1185 457 1234 477Q1283 498 1342 498Q1431 498 1471 443Q1511 389 1511 298L1511 0L1443 0L1436 58L1433 58Q1398 29 1358 8Q1318 -12 1272 -12ZM1296 54Q1331 54 1362 70Q1393 87 1428 119L1428 254Q1367 246 1325 235Q1284 224 1258 209Q1233 194 1221 174Q1210 155 1210 132Q1210 90 1235 72Q1260 54 1296 54ZM1746 0L1664 0L1664 486L1732 486L1739 398L1742 398Q1767 444 1802 471Q1838 498 1880 498Q1909 498 1932 488L1916 416Q1904 420 1894 422Q1884 424 1869 424Q1838 424 1804 399Q1771 374 1746 312L1746 0ZM2208 -12Q2159 -12 2116 5Q2074 23 2042 55Q2011 88 1993 135Q1975 182 1975 242Q1975 302 1993 349Q2012 397 2042 430Q2073 463 2112 480Q2151 498 2193 498Q2239 498 2275 482Q2312 466 2336 436Q2361 406 2374 364Q2387 322 2387 270Q2387 257 2386 244Q2386 232 2384 223L2056 223Q2061 145 2104 99Q2148 54 2218 54Q2253 54 2282 64Q2312 75 2339 92L2368 38Q2336 18 2297 3Q2258 -12 2208 -12ZM2055 282L2315 282Q2315 356 2283 394Q2252 433 2195 433Q2169 433 2145 423Q2122 413 2103 393Q2084 374 2071 346Q2059 318 2055 282ZM2598 0L2515 0L2515 656L2598 656L2598 381L2903 381L2903 656L2987 656L2987 0L2903 0L2903 309L2598 309L2598 0ZM3301 -12Q3223 -12 3187 36Q3152 84 3152 178L3152 486L3235 486L3235 189Q3235 120 3256 89Q3278 59 3326 59Q3364 59 3393 78Q3422 98 3457 141L3457 486L3539 486L3539 0L3471 0L3464 76L3461 76Q3427 36 3389 12Q3352 -12 3301 -12ZM3918 -12Q3884 -12 3847 4Q3811 21 3779 50L3776 50L3769 0L3703 0L3703 712L3785 712L3785 518L3783 430Q3816 459 3855 478Q3894 498 3935 498Q3982 498 4018 480Q4054 463 4078 430Q4103 398 4115 352Q4128 307 4128 251Q4128 189 4111 140Q4094 91 4065 57Q4036 23 3998 5Q3960 -12 3918 -12ZM3904 57Q3934 57 3959 70Q3985 84 4003 108Q4022 133 4032 169Q4043 205 4043 250Q4043 290 4036 323Q4029 356 4013 379Q3998 403 3973 416Q3949 429 3915 429Q3856 429 3785 363L3785 108Q3817 80 3848 68Q3880 57 3904 57Z" fill="#ffffff" style=""></path></g></g></g></svg>