<svg version="1.1" xmlns="http://www.w3.org/2000/svg" viewBox="-2344.1948614384046 -1578.325 5983.394861438404 2425.6499999999996"><desc>Created with Snap</desc><defs></defs><g><g transform="matrix(22.2594,0,0,22.2594,-2270.8524,-1456.2122)"><path d="M89.495,56.409c0-3.217-2.225-6.033-5.748-7.865V33.219c0-0.566-0.296-1.092-0.78-1.386L59.404,17.53l-6.073-8.534  c-0.306-0.427-0.797-0.681-1.321-0.681c-0.525,0-1.017,0.254-1.321,0.681l-6.074,8.534L21.051,31.833  c-0.484,0.294-0.78,0.819-0.78,1.386v15.117l-8.988,5.481c-0.482,0.295-0.777,0.818-0.777,1.384v0.166v0.968v19.623  c0,0.565,0.295,1.09,0.777,1.385l16.882,10.294c0.259,0.157,0.552,0.236,0.844,0.236c0.293,0,0.586-0.079,0.845-0.236l9.144-5.575  l12.172,7.388c0.259,0.157,0.55,0.235,0.842,0.235c0.291,0,0.582-0.078,0.841-0.235l11.411-6.927  c2.638,1.308,5.971,2.086,9.647,2.086c8.739,0,15.586-4.356,15.586-9.917V57.535c0-0.138-0.022-0.27-0.056-0.398  C89.466,56.896,89.495,56.655,89.495,56.409z M53.631,15.011l13.711,19.264l-13.711,8.468V15.011z M50.388,15.011v27.731  l-13.711-8.468L50.388,15.011z M27.387,83.363l-13.639-8.315V59.224l13.639,8.317V83.363z M29.008,64.731l-14.56-8.88l14.56-8.88  l14.562,8.88L29.008,64.731z M30.63,83.363V67.541l13.64-8.317v15.824L30.63,83.363z M52.01,86.166l-9.896-6.007l4.62-2.816  c0.483-0.295,0.777-0.819,0.777-1.385V56.335v-0.968v-0.166c0-0.565-0.294-1.089-0.777-1.384L29.853,43.522  c-0.519-0.316-1.17-0.316-1.688,0l-4.651,2.836V34.131l16.348-9.922l-6.83,9.596c-0.26,0.365-0.356,0.821-0.269,1.261  c0.09,0.439,0.356,0.823,0.738,1.059l17.657,10.904c0.262,0.161,0.557,0.241,0.853,0.241c0.295,0,0.59-0.08,0.852-0.241  l17.657-10.904c0.382-0.235,0.648-0.619,0.737-1.059s-0.008-0.896-0.268-1.261l-6.829-9.596l16.345,9.922v13.128  c-1.995-0.59-4.221-0.926-6.595-0.926c-8.739,0-15.586,4.426-15.586,10.076c0,0.246,0.029,0.487,0.056,0.728  c-0.033,0.129-0.056,0.261-0.056,0.398v17.156c0,2.21,1.094,4.223,2.946,5.854L52.01,86.166z M86.252,74.691  c0,3.618-5.652,6.674-12.343,6.674s-12.343-3.056-12.343-6.674V62.616c2.827,2.366,7.259,3.87,12.343,3.87s9.516-1.504,12.343-3.87  V74.691z M73.909,63.243c-6.69,0-12.343-3.129-12.343-6.834c0-3.704,5.652-6.833,12.343-6.833s12.343,3.129,12.343,6.833  C86.252,60.114,80.6,63.243,73.909,63.243z" fill="#195190" style=""></path><desc>Created with Snap</desc><defs></defs></g><g><g transform="matrix(0.5,0,0,-0.5,0,0)"><path d="M414 -74Q349 -74 306 -60Q263 -45 238 -27Q213 -9 203 7Q193 24 193 29Q193 47 201 67Q209 88 221 105Q233 123 247 135Q261 147 272 147Q286 147 295 129Q297 127 305 119Q313 111 327 102Q342 94 363 87Q385 80 414 80Q477 80 517 118Q557 157 557 223Q557 269 535 305Q514 341 479 372Q444 403 399 432Q354 462 307 494Q260 526 215 563Q170 600 135 648Q100 696 78 756Q57 817 57 895Q57 962 80 1030Q103 1098 143 1159Q184 1221 239 1274Q294 1328 358 1367Q422 1407 491 1429Q561 1452 631 1452Q691 1452 739 1433Q787 1414 820 1379Q853 1345 871 1296Q889 1248 889 1188Q889 1131 869 1076Q849 1021 816 972Q783 923 741 881Q700 840 656 809Q613 779 572 762Q531 745 500 745Q473 745 451 757Q430 770 415 788Q401 807 393 827Q385 848 385 864Q385 877 388 881Q392 885 398 884Q405 884 415 881Q425 879 438 879Q480 879 531 908Q582 937 627 982Q672 1027 702 1081Q733 1135 733 1186Q733 1238 707 1268Q682 1298 621 1298Q583 1298 538 1283Q494 1269 449 1243Q404 1217 362 1180Q320 1143 288 1098Q256 1054 236 1002Q217 951 217 895Q217 836 238 789Q260 743 295 705Q331 667 376 635Q421 603 468 571Q515 540 560 506Q605 473 640 432Q676 392 697 342Q719 293 719 229Q719 167 695 111Q672 56 631 15Q590 -26 534 -50Q478 -74 414 -74ZM920 33L920 1262Q920 1284 916 1297Q913 1310 909 1317Q906 1325 902 1329Q899 1334 899 1339Q899 1345 905 1349Q911 1353 921 1356Q931 1359 942 1360Q954 1362 965 1362Q1016 1362 1045 1335Q1075 1309 1075 1272L1075 600Q1096 643 1120 680Q1145 717 1173 744Q1202 772 1234 787Q1267 803 1305 803Q1356 803 1389 784Q1422 765 1441 735Q1460 705 1467 668Q1475 631 1475 596L1475 172Q1475 165 1476 149Q1477 134 1482 118Q1487 102 1497 90Q1508 78 1528 78Q1559 78 1581 100Q1604 122 1620 155Q1637 188 1647 226Q1658 265 1665 299Q1671 330 1683 344Q1696 358 1710 359Q1725 361 1740 352Q1755 343 1766 328Q1777 314 1782 296Q1788 278 1784 262Q1770 211 1747 155Q1725 99 1690 52Q1655 5 1606 -26Q1557 -57 1491 -57Q1450 -57 1418 -42Q1387 -26 1364 0Q1342 26 1330 61Q1319 96 1319 135L1319 551Q1319 575 1318 596Q1317 617 1312 633Q1308 649 1299 658Q1291 668 1276 668Q1254 668 1222 638Q1190 608 1159 560Q1128 512 1104 451Q1081 391 1075 330L1075 31Q1075 16 1074 0Q1074 -15 1068 -28Q1063 -40 1051 -49Q1040 -57 1018 -57Q1003 -57 985 -54Q968 -50 953 -41Q939 -31 929 -14Q920 4 920 33ZM2253 78Q2284 78 2306 100Q2329 122 2345 155Q2362 188 2372 226Q2383 265 2390 299Q2397 331 2410 345Q2424 360 2440 360Q2452 360 2464 352Q2477 345 2487 333Q2498 321 2504 306Q2511 291 2511 276Q2511 274 2511 271Q2511 268 2509 262Q2496 211 2473 155Q2451 99 2416 52Q2381 5 2331 -26Q2282 -57 2216 -57Q2162 -57 2122 -34Q2082 -11 2059 27Q2028 -8 1984 -33Q1941 -57 1883 -57Q1823 -57 1777 -33Q1732 -9 1701 32Q1670 74 1654 130Q1639 187 1639 252Q1639 380 1680 482Q1721 584 1789 655Q1857 727 1944 765Q2032 803 2126 803Q2168 803 2194 780Q2220 757 2220 717Q2220 691 2214 680Q2209 670 2194 670Q2180 670 2165 672Q2150 674 2134 674Q2076 674 2016 648Q1956 623 1907 570Q1859 518 1828 437Q1797 357 1797 246Q1797 165 1828 121Q1859 78 1913 78Q1955 78 1983 109Q2011 141 2028 184L2028 500Q2028 515 2026 525Q2025 535 2023 542Q2022 549 2021 554Q2020 560 2020 565Q2020 581 2035 590Q2051 600 2073 600Q2124 600 2154 573Q2184 547 2184 510L2184 172Q2184 155 2188 138Q2192 122 2200 108Q2208 95 2221 86Q2235 78 2253 78ZM2845 -57Q2809 -57 2771 -46Q2734 -35 2703 -8Q2673 19 2653 63Q2634 108 2634 176Q2634 275 2660 385Q2687 496 2737 629L2581 629L2558 629Q2557 599 2554 553Q2552 507 2546 455Q2540 403 2530 350Q2521 297 2507 252Q2497 220 2475 215Q2454 210 2433 222Q2412 235 2399 259Q2386 283 2393 309Q2401 340 2407 384Q2413 429 2416 478Q2420 528 2422 577Q2424 627 2425 666Q2387 687 2362 719Q2337 752 2337 797Q2337 818 2345 835Q2354 853 2368 865Q2382 878 2401 884Q2420 891 2440 891Q2458 891 2477 886Q2497 881 2514 868Q2532 855 2546 834Q2560 813 2569 782Q2594 779 2611 777Q2629 776 2641 775Q2653 774 2661 774Q2669 774 2677 774L2784 774Q2793 774 2810 763Q2828 752 2845 734Q2862 717 2873 697Q2885 677 2882 659Q2882 653 2875 630Q2868 607 2858 572Q2848 537 2836 491Q2824 446 2814 396Q2804 346 2797 292Q2790 239 2790 188Q2790 167 2795 147Q2800 127 2810 111Q2820 96 2835 87Q2851 78 2872 78Q2907 78 2932 100Q2957 122 2974 155Q2991 188 3001 226Q3012 265 3019 299Q3025 331 3039 345Q3053 360 3068 360Q3080 360 3093 352Q3106 345 3116 333Q3127 321 3133 306Q3140 291 3140 276Q3140 271 3139 268Q3138 265 3138 262Q3124 211 3101 155Q3079 99 3044 52Q3009 5 2960 -26Q2911 -57 2845 -57ZM3499 596Q3499 539 3479 479Q3460 419 3421 365Q3383 312 3326 269Q3270 227 3196 205Q3206 179 3222 155Q3239 132 3262 115Q3285 98 3315 88Q3346 78 3386 78Q3446 78 3489 100Q3532 123 3561 160Q3591 197 3609 243Q3627 289 3636 336Q3643 370 3664 381Q3686 393 3708 387Q3731 381 3747 361Q3764 342 3761 315Q3757 284 3747 244Q3738 204 3719 163Q3700 122 3670 82Q3641 43 3598 12Q3555 -19 3497 -38Q3439 -57 3364 -57Q3294 -57 3228 -30Q3163 -2 3112 49Q3062 101 3031 176Q3001 252 3001 348Q3001 445 3028 528Q3055 612 3099 673Q3143 734 3199 768Q3255 803 3314 803Q3357 803 3391 788Q3426 773 3450 745Q3474 718 3486 680Q3499 642 3499 596ZM3169 354Q3169 345 3170 336Q3171 327 3171 317Q3209 335 3240 363Q3271 391 3293 427Q3315 463 3327 505Q3339 548 3339 594Q3339 628 3327 647Q3316 666 3296 666Q3271 666 3251 649Q3232 632 3217 604Q3203 577 3193 542Q3184 508 3178 473Q3172 438 3170 406Q3168 375 3169 354ZM4357 1348L4357 618L4676 618L4676 1317Q4676 1426 4707 1481Q4739 1536 4783 1536Q4805 1536 4824 1523Q4844 1510 4859 1492Q4874 1475 4882 1456Q4891 1438 4891 1427Q4891 1416 4882 1414Q4874 1413 4863 1403Q4853 1394 4844 1366Q4836 1338 4836 1274L4836 -10Q4836 -36 4818 -47Q4801 -57 4778 -57Q4760 -57 4742 -52Q4724 -47 4709 -39Q4695 -31 4685 -21Q4676 -10 4676 2L4676 475L4357 475L4357 -10Q4357 -36 4339 -47Q4322 -57 4299 -57Q4281 -57 4263 -52Q4245 -47 4230 -39Q4216 -31 4206 -21Q4197 -10 4197 2L4197 475L4051 475Q4035 475 4021 485Q4008 495 3998 510Q3989 526 3983 544Q3978 562 3978 578Q3978 595 3985 606Q3993 618 4008 618L4197 618L4197 1280Q4102 1280 4022 1248Q3943 1217 3885 1158Q3828 1100 3795 1017Q3763 934 3763 831Q3763 766 3776 714Q3789 662 3807 625Q3825 589 3843 569Q3861 549 3871 549Q3880 549 3884 554Q3888 559 3896 559Q3904 559 3906 548Q3908 537 3908 526Q3908 494 3895 465Q3882 437 3862 419Q3843 402 3819 398Q3795 394 3773 410Q3746 429 3715 464Q3685 500 3659 552Q3634 604 3617 672Q3601 741 3601 825Q3601 934 3629 1021Q3658 1109 3706 1176Q3755 1244 3821 1292Q3887 1341 3961 1372Q4036 1404 4116 1419Q4197 1434 4275 1434Q4291 1434 4306 1427Q4321 1421 4332 1409Q4343 1398 4350 1382Q4357 1366 4357 1348ZM5588 -57Q5553 -57 5524 -46Q5496 -35 5474 -16Q5453 4 5439 30Q5425 57 5420 88Q5383 23 5333 -18Q5283 -59 5215 -59Q5164 -59 5123 -38Q5083 -17 5055 21Q5027 60 5012 114Q4998 169 4998 236Q4998 317 5009 399Q5021 481 5035 547Q5051 624 5072 696Q5077 709 5079 722Q5082 736 5091 747Q5100 758 5119 765Q5139 772 5180 772Q5218 772 5229 758Q5240 745 5237 727Q5235 709 5225 690Q5216 671 5213 659Q5199 602 5188 555Q5177 508 5169 460Q5162 413 5158 361Q5154 310 5154 246Q5154 162 5178 119Q5203 76 5248 76Q5279 76 5305 99Q5332 122 5353 160Q5375 199 5391 248Q5407 298 5416 352L5416 682Q5416 704 5412 717Q5409 730 5405 737Q5402 745 5398 749Q5395 754 5395 760Q5395 765 5401 769Q5407 773 5417 776Q5427 779 5438 780Q5450 782 5461 782Q5512 782 5541 755Q5571 729 5571 692L5571 172Q5571 165 5572 149Q5573 134 5578 118Q5583 102 5594 90Q5605 78 5625 78Q5656 78 5678 100Q5701 122 5717 155Q5734 188 5744 226Q5755 265 5762 299Q5768 331 5782 345Q5796 360 5811 360Q5823 360 5836 352Q5849 345 5859 333Q5870 321 5876 306Q5883 291 5883 276Q5883 274 5883 271Q5883 268 5881 262Q5867 211 5844 155Q5822 99 5787 52Q5752 5 5703 -26Q5654 -57 5588 -57ZM5993 522Q5993 584 6006 629Q6020 675 6044 704Q6068 734 6099 748Q6131 762 6167 762Q6208 762 6247 742Q6286 722 6316 681Q6347 640 6365 577Q6384 514 6384 428Q6384 368 6376 308Q6369 249 6353 195Q6364 191 6374 190Q6385 190 6396 190Q6429 190 6454 202Q6480 214 6498 234Q6517 254 6528 281Q6539 308 6544 338Q6546 350 6557 358Q6569 366 6584 369Q6599 372 6615 369Q6632 366 6644 355Q6656 345 6661 326Q6667 308 6661 279Q6652 237 6631 200Q6611 164 6580 136Q6549 108 6507 92Q6465 76 6413 76Q6385 76 6359 79Q6333 82 6308 90Q6270 24 6209 -17Q6148 -57 6058 -57Q5987 -57 5933 -32Q5880 -7 5843 38Q5807 84 5788 147Q5770 210 5770 285L5770 1262Q5770 1284 5766 1297Q5763 1310 5759 1317Q5756 1325 5752 1329Q5749 1334 5749 1339Q5749 1345 5755 1349Q5761 1353 5771 1356Q5781 1359 5792 1360Q5804 1362 5815 1362Q5866 1362 5895 1335Q5925 1309 5925 1272L5925 313Q5925 262 5934 219Q5943 176 5961 144Q5979 113 6006 95Q6034 78 6071 78Q6109 78 6136 97Q6163 117 6181 150Q6137 181 6102 222Q6068 264 6043 312Q6019 361 6006 414Q5993 468 5993 522ZM6120 530Q6120 456 6146 390Q6173 324 6218 276Q6224 312 6226 347Q6228 383 6228 412Q6228 515 6206 571Q6185 627 6157 627Q6137 627 6128 600Q6120 574 6120 530Z" fill="#195190" style=""></path></g></g></g></svg>